<?xml version="1.0" encoding="UTF-8"?>
<svg width="200" height="200" viewBox="0 0 200 200" xmlns="http://www.w3.org/2000/svg">
    <!-- Fundo -->
    <rect width="200" height="200" rx="20" fill="#8B0000"/>
    
    <!-- Calculadora -->
    <rect x="40" y="40" width="120" height="120" rx="10" fill="white"/>
    
    <!-- Display -->
    <rect x="50" y="50" width="100" height="30" rx="5" fill="#f0f0f0"/>
    
    <!-- Botões -->
    <g fill="#8B0000">
        <!-- Linha 1 -->
        <rect x="50" y="90" width="20" height="20" rx="3"/>
        <rect x="75" y="90" width="20" height="20" rx="3"/>
        <rect x="100" y="90" width="20" height="20" rx="3"/>
        <rect x="125" y="90" width="20" height="20" rx="3"/>
        
        <!-- Linha 2 -->
        <rect x="50" y="115" width="20" height="20" rx="3"/>
        <rect x="75" y="115" width="20" height="20" rx="3"/>
        <rect x="100" y="115" width="20" height="20" rx="3"/>
        <rect x="125" y="115" width="20" height="20" rx="3"/>
        
        <!-- Linha 3 -->
        <rect x="50" y="140" width="20" height="20" rx="3"/>
        <rect x="75" y="140" width="20" height="20" rx="3"/>
        <rect x="100" y="140" width="20" height="20" rx="3"/>
        <rect x="125" y="140" width="20" height="20" rx="3"/>
    </g>
</svg> 